Coordinates
version=1
nRows=16
nColumns=36
inDegrees=yes

Units are S.I. units (second, meters, Newtons, ...)
If the header above contains a line with 'inDegrees', this indicates whether rotational values are in degrees (yes) or radians (no).

endheader
time	pelvis_tilt	pelvis_list	pelvis_rotation	pelvis_tx	pelvis_ty	pelvis_tz	hip_flexion_r	hip_adduction_r	hip_rotation_r	knee_angle_r	knee_angle_r_beta	ankle_angle_r	subtalar_angle_r	mtp_angle_r	hip_flexion_l	hip_adduction_l	hip_rotation_l	knee_angle_l	knee_angle_l_beta	ankle_angle_l	subtalar_angle_l	mtp_angle_l	lumbar_extension	lumbar_bending	lumbar_rotation	arm_flex_r	arm_add_r	arm_rot_r	elbow_flex_r	pro_sup_r	arm_flex_l	arm_add_l	arm_rot_l	elbow_flex_l	pro_sup_l
      0.92500000	    -10.68865105	      0.98830872	      0.86606091	      0.04498078	      0.79935103	     -0.06531107	     50.70479094	    -11.20897996	     -6.60159086	     51.71263842	      0.90255581	     12.35413617	      9.21772042	     -7.49999987	     52.68707672	     -8.36672403	     -1.79182734	     49.92192660	      0.87130199	      7.24383438	      5.04477937	     -7.49999987	    -14.00844974	      1.71904248	     -1.29161668	     57.59402463	    -25.60887567	     34.65254555	    117.56452259	     91.36105831	     51.99996823	    -22.78118019	     29.60358513	    115.52293772	     81.04284503
      0.92916670	    -10.26099872	      0.83367771	      0.74198025	      0.04783826	      0.79375517	     -0.07032747	     51.40593719	    -11.49786031	     -6.41567297	     53.90432282	      0.94080791	     13.22280626	      9.29542699	     -7.49999987	     53.61458991	     -8.30530820	     -1.40169645	     52.81574389	      0.92180863	      8.56526084	      4.10101062	     -7.49999987	    -15.02831158	      2.19908605	     -0.98744106	     56.69711676	    -26.30548065	     34.71113738	    117.04836132	     91.41831396	     50.91078889	    -22.08241711	     29.36488020	    115.74224057	     81.07918037
      0.93333330	    -10.49035678	      0.74444725	      0.81349134	      0.04730423	      0.78288857	     -0.06929147	     53.08874455	    -11.63305309	     -6.16740601	     56.53540916	      0.98672903	     14.46189424	      8.73794405	     -7.49999987	     55.97663484	     -7.69356557	      0.09006232	     56.59524206	      0.98777331	      9.49288915	      2.72992282	     -7.49999987	    -15.44140320	      2.40606113	     -0.86987655	     55.80073751	    -27.38503152	     33.69636410	    116.02413094	     90.50417201	     49.95048100	    -21.56819297	     28.67116566	    115.82259684	     80.51793158
      0.93750000	    -10.27292677	      0.93350458	      1.22823477	      0.04667152	      0.76733188	     -0.06941556	     55.38167494	    -12.08510457	     -5.14802016	     60.83618328	      1.06179170	     15.94585133	      7.64152593	     -7.49999987	     57.99661637	     -6.75561403	      1.44026225	     60.21270983	      1.05091004	     10.80182527	      2.08280751	     -7.49999987	    -16.36958257	      2.07162411	     -0.93638798	     56.00202939	    -28.12590418	     33.15159680	    115.03515912	     89.62993538	     49.93211440	    -20.97818056	     28.47977328	    116.10582457	     79.95844683
      0.94166670	    -10.78765973	      1.00390322	      1.76203768	      0.05142815	      0.75662253	     -0.07407031	     57.99234077	    -12.65676057	     -4.28414178	     64.71107672	      1.12942135	     17.55874110	      7.01913868	     -7.49999987	     60.38911722	     -5.76280442	      2.53518730	     63.44363738	      1.10730036	     12.21252882	      1.26403113	     -7.49999987	    -16.03988661	      2.09726474	     -1.26741847	     54.69750520	    -28.36108027	     31.68421962	    114.26068366	     89.72133270	     48.71805859	    -20.16101380	     28.33101840	    115.93923642	     80.12585680
      0.94583330	    -11.11245177	      1.31560553	      1.90975466	      0.05169871	      0.75328522	     -0.07470973	     59.70051062	    -12.93081013	     -3.43780358	     67.06841832	      1.17056472	     18.39251988	      6.49344641	     -7.49999987	     61.65380951	     -5.03094892	      3.08801460	     65.05663768	      1.13545253	     12.80424660	      0.54948490	     -7.49999987	    -16.64696933	      1.82915275	     -1.65227658	     53.20030908	    -28.59705588	     30.38616960	    114.31887933	     89.45072035	     47.23477285	    -19.42377887	     27.96034350	    116.23724304	     79.82218984
      0.95000000	    -11.50659632	      1.35316291	      1.92540620	      0.05233499	      0.74536016	     -0.07387961	     61.10774636	    -13.07515419	     -2.87147462	     68.90884291	      1.20268619	     19.32599696	      6.93848624	     -7.49999987	     62.95276314	     -4.74410659	      3.67863164	     66.66485850	      1.16352128	     13.26674073	     -0.46457406	     -7.49999987	    -17.29331747	      1.98303998	     -2.01808676	     51.88976131	    -28.51246921	     29.30189807	    113.94414873	     89.64234027	     44.60268674	    -18.81037758	     27.32438966	    115.77640095	     79.99816870
      0.95416670	    -11.86190863	      1.36683662	      1.91252389	      0.05279722	      0.73871264	     -0.07434837	     62.23848651	    -13.07668512	     -2.28941615	     70.25505244	      1.22618198	     20.04598656	      7.28551044	     -7.49999987	     64.06622866	     -4.66293763	      3.99083057	     67.95457783	      1.18603112	     13.69382332	     -1.04771660	     -7.49999987	    -17.95744907	      2.15146527	     -2.25757709	     51.50228061	    -28.33032396	     28.91218367	    114.31184545	     88.10499532	     43.78387520	    -18.93926551	     27.07449715	    115.93024800	     78.70747887
      0.95833330	    -11.94548648	      1.40789919	      1.88244886	      0.05326202	      0.73459058	     -0.07324148	     62.88249464	    -12.93321249	     -1.80796061	     71.20889846	      1.24282973	     20.56964345	      6.92204624	     -7.49999987	     64.71072676	     -4.88384078	      4.00308377	     68.98135809	      1.20395182	     13.98261681	     -1.73952547	     -7.49999987	    -18.86051935	      2.40297792	     -2.07966953	     51.10706514	    -27.62048378	     29.09253183	    113.45836078	     87.12967685	     43.80690989	    -18.33366661	     26.95604517	    115.32621035	     77.93611092
      0.96250000	    -13.06964318	      1.18398606	      1.78371057	      0.05346596	      0.71986042	     -0.07256653	     65.17004728	    -12.75233297	     -1.59990578	     73.02151880	      1.27446593	     20.95368234	      7.07048788	     -7.49999987	     67.09862422	     -5.27289397	      4.26764997	     70.85103203	      1.23658379	     14.40932875	     -2.21254113	     -7.49999987	    -18.45113258	      2.75442449	     -2.39427458	     50.65620947	    -27.29298869	     28.92140749	    113.54889784	     88.41381813	     42.91877317	    -18.56139579	     25.80873227	    115.82858115	     78.78828831
      0.96666670	    -13.48625537	      0.79028047	      1.67772832	      0.05864502	      0.70965547	     -0.06785049	     66.65709848	    -12.31424969	     -1.50788455	     75.32940395	      1.31474612	     22.38206621	      7.21763945	     -7.49999987	     68.81149406	     -6.19827632	      4.50750368	     73.17738997	      1.27718639	     15.34136444	     -2.13574725	     -7.49999987	    -18.56651598	      3.11826260	     -2.87110374	     51.47237042	    -26.16551054	     29.95094694	    112.84816906	     90.29931578	     42.27711845	    -19.34811563	     23.93507303	    116.15930651	     80.01203356
      0.97083330	    -13.96303620	      0.58138591	      1.54924638	      0.05821325	      0.70115847	     -0.06969838	     68.33608099	    -12.07146163	     -1.33362172	     77.46703831	      1.35205488	     23.14461150	      7.37658728	     -7.49999987	     70.81909892	     -6.81899253	      4.50732919	     75.61156891	      1.31967083	     15.96977729	     -1.90707225	     -7.49999987	    -18.61815458	      3.15523071	     -2.49865139	     50.95289110	    -26.15978767	     30.18892619	    112.87211278	     90.56878002	     42.48019903	    -19.59087146	     23.31639006	    115.68749121	     80.14111397
      0.97500000	    -14.30261846	      0.37583360	      1.27153820	      0.05852056	      0.69726772	     -0.06967685	     69.40142886	    -11.74121652	     -1.26155802	     78.59271875	      1.37170171	     23.72561255	      7.30216715	     -7.49999987	     72.06686080	     -7.52953461	      4.30755476	     76.97685747	      1.34349961	     16.43289682	     -1.52178141	     -7.49999987	    -19.05969396	      3.25149483	     -2.04852941	     51.11126957	    -26.11413578	     30.06049460	    111.84409112	     90.07504481	     43.17084867	    -18.96500949	     23.02805497	    114.82247616	     80.02038651
      0.97916670	    -14.79641819	      0.18462632	      1.11641032	      0.05844007	      0.69013527	     -0.07017105	     70.47693275	    -11.49384897	     -1.15364097	     79.60651700	      1.38939583	     24.27394184	      7.25090621	     -7.49999987	     73.46657908	     -8.16821533	      4.08405730	     78.26229787	      1.36593478	     17.20953039	     -0.54230768	     -7.49999987	    -19.39355931	      3.40901769	     -1.32380304	     51.54762474	    -26.54947266	     29.42698637	    110.98252612	     89.07125622	     44.03807273	    -18.04971568	     22.41279160	    113.22049394	     78.78513224
      0.98333330	    -15.16789575	      0.09249251	      0.86896393	      0.05894301	      0.68538411	     -0.06942997	     71.26156727	    -11.13042425	     -0.84755834	     80.25093296	      1.40064301	     24.54134502	      6.89070585	     -7.49999987	     74.51710082	     -8.55025636	      3.91464029	     79.38562626	      1.38554056	     17.72698092	     -0.00958895	     -7.49999987	    -19.74515402	      3.33288503	     -1.27137904	     51.30146550	    -26.15815273	     28.59957066	    110.31439417	     88.31241260	     44.14012771	    -17.06348595	     21.66218197	    112.15031992	     78.27038137
      0.98750000	    -15.49539005	      0.01297319	      0.60375295	      0.06326450	      0.68256098	     -0.07489459	     71.77393645	    -10.93138025	     -0.48786965	     80.73929266	      1.40916649	     24.98310677	      6.87451327	     -7.49999987	     75.25553505	     -8.50828256	      4.03736531	     80.41532456	      1.40351218	     18.08500416	     -0.20126369	     -7.49999987	    -20.14291393	      3.46147604	     -0.87481078	     51.34266563	    -26.33125835	     28.00236730	    109.47110559	     88.70143074	     44.20928495	    -15.90389398	     20.93215577	    111.38979673	     78.24746236
